<svg xmlns="http://www.w3.org/2000/svg" viewBox="0 0 258.72 334.82"><defs><style>.cls-1{fill:#fffef0;}.cls-2{fill:#fff;}.cls-3{font-size:28px;}.cls-11,.cls-16,.cls-23,.cls-3{fill:#707070;}.cls-16,.cls-23,.cls-3{font-family:AcuminProExtraCond-Semibold, Acumin Pro ExtraCondensed;font-weight:600;}.cls-4{fill:#9bbe4b;}.cls-5{fill:#5d7033;}.cls-6{fill:#5d7032;}.cls-7{fill:#5e7033;}.cls-8{fill:#5e7133;}.cls-9{fill:#dcb66a;}.cls-10{fill:#848484;}.cls-12{fill:#7f7f7f;}.cls-13{fill:#7c7c7c;}.cls-14{fill:#757575;}.cls-15{fill:#737373;}.cls-16{font-size:16px;letter-spacing:0.11em;}.cls-17{letter-spacing:0.07em;}.cls-18{letter-spacing:0.08em;}.cls-19{letter-spacing:0.03em;}.cls-20{letter-spacing:-0.09em;}.cls-21{letter-spacing:0.07em;}.cls-22{letter-spacing:0.05em;}.cls-23{font-size:14px;letter-spacing:0.1em;}.cls-24{letter-spacing:0.1em;}.cls-25{letter-spacing:0.1em;}.cls-26{letter-spacing:0.12em;}.cls-27{letter-spacing:0.11em;}.cls-28{letter-spacing:0.1em;}.cls-29{letter-spacing:0.11em;}.cls-30{letter-spacing:0.1em;}</style></defs><title>Artboard 2 copy</title><g id="Layer_1" data-name="Layer 1"><circle class="cls-1" cx="131.9" cy="162.28" r="114.52"/><circle class="cls-1" cx="132.41" cy="161.43" r="78.85"/><circle class="cls-2" cx="131.9" cy="162.28" r="114.52"/><circle class="cls-2" cx="132.41" cy="161.43" r="78.85"/></g><g id="Layer_5" data-name="Layer 5"><text class="cls-3" transform="translate(35.82 199.17) rotate(67.03) scale(1 0.98)">A</text><text class="cls-3" transform="matrix(0.52, 0.85, -0.84, 0.51, 42.06, 212.45)">N</text><text class="cls-3" transform="translate(50.6 225.73) rotate(50.14) scale(1 0.98)">G</text><text class="cls-3" transform="translate(60.3 236.95) rotate(42.56) scale(1 0.98)">L</text><text class="cls-3" transform="matrix(0.81, 0.58, -0.57, 0.8, 69.72, 245.39)">E</text><text class="cls-3" transform="translate(80.47 252.88) rotate(27.76) scale(1 0.98)">R</text><text class="cls-3" transform="matrix(0.94, 0.33, -0.33, 0.92, 94, 259.56)">S</text><text class="cls-3" transform="translate(106.67 263.66) rotate(13.49) scale(1 0.98)"> </text><text class="cls-3" transform="matrix(0.99, 0.13, -0.12, 0.97, 114.27, 265.44)">A</text><text class="cls-3" transform="translate(129.46 266.98) rotate(-0.89) scale(1 0.98)">S</text><text class="cls-3" transform="matrix(0.99, -0.15, 0.15, 0.97, 143.59, 266.43)">S</text><text class="cls-3" transform="translate(157.37 264.05) rotate(-16.63) scale(1 0.98)">O</text><text class="cls-3" transform="translate(171.64 259.42) rotate(-24.63) scale(1 0.98)">C</text><text class="cls-3" transform="matrix(0.86, -0.52, 0.5, 0.84, 183.88, 253.43)">I</text><text class="cls-3" transform="matrix(0.79, -0.61, 0.6, 0.78, 191.82, 248.54)">A</text><text class="cls-3" transform="translate(202.3 240.13) rotate(-44.83) scale(1 0.98)">T</text><text class="cls-3" transform="matrix(0.63, -0.78, 0.76, 0.62, 210.85, 230.92)">I</text><text class="cls-3" transform="matrix(0.53, -0.85, 0.83, 0.52, 216.56, 223.56)">O</text><text class="cls-3" transform="matrix(0.4, -0.92, 0.9, 0.39, 224.32, 210.57)">N</text><text class="cls-3" transform="translate(55.76 123.93) rotate(-60.74) scale(1 0.98)">T</text><text class="cls-3" transform="matrix(0.62, -0.78, 0.77, 0.61, 61.61, 113.96)">H</text><text class="cls-3" transform="translate(70.87 103.15) rotate(-43.34) scale(1 0.98)">E</text><text class="cls-3" transform="translate(79.89 95.03) rotate(-37.49) scale(1 0.98)"> </text><text class="cls-3" transform="matrix(0.85, -0.52, 0.51, 0.84, 85.32, 90.48)">T</text><text class="cls-3" transform="translate(95.23 84.46) rotate(-22.29) scale(1 0.98)">H</text><text class="cls-3" transform="matrix(0.98, -0.22, 0.21, 0.96, 108.43, 79.38)">A</text><text class="cls-3" transform="matrix(1, -0.04, 0.04, 0.98, 121.44, 76.58)">M</text><text class="cls-3" transform="translate(138.93 76.37) rotate(7.2) scale(1 0.98)">E</text><text class="cls-3" transform="translate(151.2 78.16) rotate(15.43) scale(1 0.98)">S</text><text class="cls-3" transform="translate(163.27 81.85) rotate(22) scale(1 0.98)"> </text><text class="cls-3" transform="translate(169.76 84.47) rotate(29.08) scale(1 0.98)">R</text><text class="cls-3" transform="translate(181.35 91.37) rotate(37.05) scale(1 0.98)">I</text><text class="cls-3" transform="matrix(0.7, 0.71, -0.7, 0.69, 187.99, 96.45)">V</text><text class="cls-3" transform="matrix(0.6, 0.8, -0.78, 0.59, 196.75, 106.15)">E</text><text class="cls-3" transform="matrix(0.48, 0.88, -0.86, 0.47, 203.71, 115.74)">R</text><path class="cls-4" d="M132.61,240.28c-32.14-.2-61.1-19.73-73-48.75-.57-1.38-.86-2.89-1.5-4.23-1-2,.31-2.71,1.72-3.39,2-1,2.14.75,2.57,1.93A75.77,75.77,0,0,0,80.5,214.18c37.43,36.94,100.47,24.2,120.59-24.42a21,21,0,0,1,1.51-3.68c.88-1.35,2.18-2.14,3.57-1.57,1.08.43.81,2.37.45,3.49-8.82,27.1-36.48,49.1-64.81,51.52C138.5,239.81,135.23,240.67,132.61,240.28Z"/><path class="cls-4" d="M210.06,147.61C200.88,95,142.51,66.72,95.33,91.88c-14.26,7.6-24.76,18.9-32.94,32.55a48.92,48.92,0,0,0-6.1,17.3c-.23,1.24-1.18,2.52.06,3.74h0c1.57.79,2.47.74,3,.3.34-.38,1-4.59,1.55-6.36a64,64,0,0,1,15.94-28.17c8.56-8.92,10.16-9.57,15.54-13.1,29.32-19.19,72.9-13.39,95.08,13.78,8.57,9.31,14.18,22.69,17.05,34.85.64,2.69.67,5.14,4,5.56C212.05,151.73,210.33,149.14,210.06,147.61Z"/><path class="cls-5" d="M79.93,150.48c-2.41,3.62-4,3.42-7.08,2.14a30,30,0,0,1-6-4c.93-2.11,1.13-3.23,1.89-4.77.14-.3-.75-.5-2.41-.85,1-2,9.76-21.08,10.78-21.06.31,0,8.43,17.39,11,21.35-1.37,0-1.14,0-2.83,0,.67,1.25.6,1.82,2,5C84.79,147.77,80.85,149.11,79.93,150.48Z"/><path class="cls-6" d="M189.6,148.12c-4.42-.54-12.3-.13-16.35-.12a.12.12,0,0,1-.11-.19,57.29,57.29,0,0,0,3.31-5.49s0,0,0,0c-1.63,0-2.16-.07-3.93-.08,0,0,0,0,0,0,6.76-14.15,12.81-26,13.11-26,1.43,2.49,9.54,19.94,12.2,25.89a21.06,21.06,0,0,1-2.89.22.13.13,0,0,0-.13.18c.3.86,2.29,4.54,3.16,6.44.13.3.07.27-.14.24C194.8,148.67,194.47,148.67,189.6,148.12Z"/><path class="cls-7" d="M93.63,149.85c.52-.82,1-1.75,2.09-3.59-1,0-1.26,0-2.2,0a.08.08,0,0,1-.08-.11c3.45-7.54,6-12.06,8.62-17.54,2.59,6.34,4.3,9.16,8.37,17.73-1.7,0-2.33-.09-2.15.3.62,1.39,1.35,2.54,2.1,4.45a.1.1,0,0,1-.09.13c-3.63,0-9,.72-12.31.89-.71,0-2.63-1.23-4.11-1.81C93.8,150.24,93.59,149.91,93.63,149.85Z"/><path class="cls-8" d="M162.39,129.35c2.4,4.93,3,6,7.14,15,0,0,0,0,0,0-.56,0-1,0-2.2,0a0,0,0,0,0,0,0c1.05,1.9,1.14,2.07,2.25,3.85,0,0,0,0,0,0H154.37c.2-.45,1.3-2.6,2-4.08h-1.58c3.88-8.45,4.48-9.9,6.79-14.87C161.9,128.56,162.06,128.59,162.39,129.35Z"/><path class="cls-9" d="M156.13,103.17c-1.5,1.08-3.07,2.53-3.72-.74C153.72,102.35,155.08,102,156.13,103.17Zm.54-4.11a3.54,3.54,0,0,0-4.94-.27c-2.14,1.71-2.32,3.79-.43,5.91,1.65,2.07,3.37,2,5.17.2h0C158.78,103,158.69,101,156.67,99.06Z"/><path class="cls-9" d="M112.29,104.23l-3.82-.07c-.06-1.57.89-1.87,2.19-1.82S112.32,103.1,112.29,104.23Zm1-5.08c-1.62-1.9-4-1.79-5.65,0-2,2.14-2,4.39.76,6.12a3.19,3.19,0,0,0,4,0h0C115.21,103.64,115.06,101.28,113.26,99.15Z"/><path class="cls-9" d="M134.16,99.33a4.8,4.8,0,0,1-3.78-1c.52-1.2,1.36-1.84,2.7-1.41S134.43,98.25,134.16,99.33Zm.65-5.81c-1.89-1.47-3.8-.88-5.23.78-1.67,2-1.6,3.88.71,5.42,1.78,1.38,3.49,1.42,5.09-.3h0C137.27,97.25,137,95.19,134.81,93.52Z"/><path class="cls-10" d="M105.45,170.42c-.07,1.07-.57,1.69-1.5,1.78a1.51,1.51,0,0,1-1.83-1.27c-.07-.9.63-1.45,1.57-1.53S105.36,169.4,105.45,170.42Z"/><path class="cls-11" d="M69.35,171.83a1.43,1.43,0,0,1-1.43,1.54c-.87.1-1.63-.19-1.67-1.17a1.53,1.53,0,0,1,1.45-1.58A1.3,1.3,0,0,1,69.35,171.83Z"/><path class="cls-12" d="M102,161.8c-.45.94-1,1.8-2.23,1.32-.49-.2-1.21-1-1.11-1.31a1.93,1.93,0,0,1,2.29-1.37A1.16,1.16,0,0,1,102,161.8Z"/><path class="cls-13" d="M177.41,158.21a1.74,1.74,0,0,1,1.8-1.26c1,0,1.39.74,1.13,1.65s-1.07,1.08-1.93.93A1.08,1.08,0,0,1,177.41,158.21Z"/><path class="cls-14" d="M194.38,168.82a10.34,10.34,0,0,1,.58-3.34,16.82,16.82,0,0,1,2-3.77c-1.37,5.36-1.8,5.17-1.66,7.47a11.78,11.78,0,0,0,2.34,6.25c.76.72,3.63,1.28,5.76,1.34-.11-1.64.45-2.62-.93-5.47,0,0-2-2.25-.73-6.51.9,5.52,3.22,6.18,3.66,8.45-.08,5,.12,5-.16,5-1.41,0-2.84,0-4.24-.16a6.78,6.78,0,0,1-3.76-1.44,6.62,6.62,0,0,1-1.54-2.15A12.55,12.55,0,0,1,194.38,168.82Z"/><path class="cls-15" d="M213.55,161.94c0-.88-.1-1.64-1.42-1.64s-3.15.94-3.15,1.82a2.91,2.91,0,0,0,2.44,2.53C212.74,164.65,213.55,162.82,213.55,161.94Z"/><path class="cls-11" d="M170.3,180.49c-13.32,6.11-61-2.84-75.43-7.29,0-.25.42,0,2.19.32,27.41,4.86,56.26,9.46,71.15,7.55Z"/><path class="cls-13" d="M207.5,163.62c2.82,3,5.16,2,6.91.67-2,.17-4.21,1.06-6.62-.8C207.44,163.22,207.16,163.14,207.5,163.62Z"/><path class="cls-11" d="M227.13,169.21c-2.27.18-5.41.27-6.56.25-.52,0-.3-.6,0-.9s4.08-3.08,6.21-4.64a.7.7,0,0,0,.16-.95,32.73,32.73,0,0,0-15.72-8.09h-.06a36.28,36.28,0,0,0-5.2-1.61l-.07,0c-3.77-1.72-14.32-2.68-16.44-3-4.89-.8-15.37-.25-24.84-.42-6.45-.11-14.5.61-22.58.57-1.77-.07-11-9.49-13.74-12-.71-.66-1.81-1.33-2-.48-.72,2.61-7,9-9.87,12.48a1.47,1.47,0,0,0-.24.81c0,.73-.13,1.48-.87,1.48-8.09,0-13.48,2.18-18.37,2.09a5.83,5.83,0,0,1-2-1,17.59,17.59,0,0,0-10.71-3.29c-1.25,0-2.64,1-4.28,4-1.51,3.19-4.63,1.45-5.71,1-1.89-.7-21-8.88-22.46-9.69a124.63,124.63,0,0,0-15.81-6c-1.35-.42-3.37-.92-4.47.39-1,1.14,0,2.56.49,3.72,2.29,5.3,4.35,10.73,7.13,15.76,2.29,4.14,2.31,7.74-.26,11.53h0c-2.7,3.6-10.67,16.23-9.51,20.11.23.74,2,.38,3.79.47,6,.3,10.38-2.3,20.92-7.29,3.13-1.84,12.68-7,16-8.28,6.15-2.39,9.27-2.35,16-.6.51.13-1.51.62-2.26,1s-.88,1.8.15,2.67c2.88,3.86,6.21,7.45,5,12.51-.39,1.7,1.57,2.25,2.72,1.54,2.93-1.8,10.76-10.12,11.58-11.91.24-.53,1-.49,1-.49,3.34.34,11.53,4.43,18.79,6.15,3.89,1.53,3.44,2.36,5.16,6.31,1.21,2.79,2.39,6,5.45,7.78.64.29,2.3.86,7.52-8.6.71-1,2.1-2.48,3.56-2.43,6.43.22,17.58.48,23.76.39,1.49,0-1.59,2.25-2.69,3.26a8.47,8.47,0,0,0-.63.94c-.66.85.75.8,1.07.72,8.69-2.36,16.44-6.08,24.67-8.86,5.37-1.52,13.24-3.43,18.57-5,5-1.48,11.24-4.14,14.24-6.54l0,0c2.08-1.94,4-3.51,4-4.86C227.82,169.62,227.74,169.16,227.13,169.21ZM126.42,141.14a1.28,1.28,0,0,1,1.93-.2c.7.69,10.56,8.29,11,9.77.55,1.8-5-3.49-9-6.43,4.92,4.8,6.46,5.49,7,6.55s-1.9.44-2.6.19a54.67,54.67,0,0,1-7.56-6.27c-.45,0,3.84,4,5.27,6.28-.76.17-1.93.44-2.16-.22s-4.13-3.45-4.45-3.4,2.75,3,2.51,3.71a2.2,2.2,0,0,1-2,.47c-.68-.33-2.66-2.67-3-2.48a3.83,3.83,0,0,0,.74,1.26,1,1,0,0,1-.79,1.57,21.74,21.74,0,0,1-3.18,0,8.94,8.94,0,0,1-2-1.07C120.59,148.83,124.42,144,126.42,141.14ZM98.15,185.47a43.82,43.82,0,0,1-6.1,4.77c-.34.19-.68.2-.69-.26,0-.09,0-1.44,0-1.85a1.32,1.32,0,0,1,.8-1.19c2.32-1.39,6.4-4.6,6.17-4.84s-4.79,2.49-5.11,2.65c-2.11,1-3.13.38-2.91-.35.28-.93,4.94-2.79,4.87-3.82,0-.37-3.21,1.15-5.34,1.54-.76.14-1.57-1.07-1.76-1.23s-.44-.48-.36-.54L90,178.44a.15.15,0,0,0-.1-.27l-2.29.62a1.62,1.62,0,0,1-1.22-.15l-.92-.52c-.33,0-.37-1,0-1,1.23-.06,2.3-1,3.61-1,3.72-.13,10.28,2.79,12.94,3.69.2.07,1,.63.83.79C101.93,181.58,99.1,184.6,98.15,185.47Zm125.11-12.69c-3.75,3.24-17,7.71-22.54,8.5-2.68.38-4.1.41-6.68-2-1.89-1.77-3.17-2-4.06-4.27s-1.2-3.38-1.09-5.19a19.82,19.82,0,0,1,.58-4.58,39.23,39.23,0,0,1,4.42-8c1.07-2.17-5.95,5.88-6.59,9.95-1.33,6.94,1.51,12.38,6.89,15.14a.46.46,0,0,1,0,.83c-1,.5-2.09.74-7.69,3-.06,0-.14,0-.18,0-.47-.55,3-4.36,2.73-4.69,0,0-.12-.17-.17-.11-2.84,3.51-11.68,9.53-18.59,10.65-.11-.87,7.88-3.82,9.69-6,0,0,0,0,0,0-1.62.81-3.88,1.52-5.36,2.09-.7.26-2.11.73-2.36.22s1.11-1.91,1.78-2.29a46.45,46.45,0,0,1,6.11-3c2.17-.69,4.46-.92,5.19-1.7-6.27.35-7.88,2-11.07,3.14-.22.08-.33-.59.22-1.09,3.3-3,5.16-4.1,11.09-4.82.13,0,.7-.16-.05-.1-12.35.87-13.75,5.08-15,9.44-.14.4-.65.91-1.07.89-3.33-.12-17.85-.33-25.11-.37-.38,0-.94-.06-1-.25.4-1.93,1.23-3.41,1.28-5.71a87.8,87.8,0,0,1-4.26,9.79A24,24,0,0,1,135.4,199c-.69.58-1.08.07-1.36-.18-.66-.59-1.1-1.23-.56-1.41.7-.23,4.8-4.07,4.59-8-1.78,4.22-3.29,6.6-5.49,6.9-1.12.15-1.56-1.19-2.37-3.57a.46.46,0,0,1,.37-.61,6.8,6.8,0,0,0,4.75-4.06c-2.33,2.83-4.35,3.51-5.54,3-.74-.34-1.51-2.79-1.88-5.19a2.63,2.63,0,0,1,.27-2,2.53,2.53,0,0,1,2.21-.69c2.24.79,3,.49,3.72-.66-.43,0-.49.6-1.71.58s-.93-1-3.2-.83a2.42,2.42,0,0,0-1.34.5c-1.9,1.46-.87,3.45-2,3.24-5.55-1.07-18.35-6.32-25.09-9-6.52-2.55-14.27-3.89-19.59-4.66a.49.49,0,0,1-.18-.91c3-1.52,6.49-2.33,10.59-3.1a76.12,76.12,0,0,0-8.05,1.16c-3.52.77-3.62.9-5.78,1.43-9.42,2.55-12.68,5.5-23.07,10.87a90.51,90.51,0,0,1-15.19,6.85,39.1,39.1,0,0,1-7,.94c-1.07,0-.69-2.43.37-2.81,6.45-2.33,16-5.91,23.38-9.47.09,0-.19,0-.28,0-7.45,1.79-15,5.18-17.71,6a21.92,21.92,0,0,1-4.63.85c.44-.25,1.19-2.73,2.74-3.34,6.9-2.71,19.16-7.36,19.3-7.42.44-.16.2-.3.07-.32a99.77,99.77,0,0,0-18.16,5.26c-.46.18-.76.18-.8,0-.21-.82,1.14-2.58,2.68-3.35,1.7-.85,13.53-2.93,15.26-4.74-7.65,1.41-10.9,1.85-14.41,2.55.76-1.81,1.51-2.9,2.46-3.42A31.25,31.25,0,0,1,51,166.47c.16-.88-7.64,1.33-7.6.77.28-4-.38-5.49-1.41-6.87-.4-.55.17-1.35.85-1.36,2.62,0,8.43.61,8.57.48a79.72,79.72,0,0,0-9.07-2,2.84,2.84,0,0,1-1.85-1,13.8,13.8,0,0,1-3-5.78c-.13-.76,1.37-1.11,2.07-.79a41.55,41.55,0,0,0,5.5,2c4.35,1.21,9.84,3.19,11.63,2.87-2.74-1-7-2.46-10.94-4C43.49,149.65,33,147.38,33.22,141c0-.09.42,0,.51,0,6.2.47,32.47,13,34.33,13.85a17.69,17.69,0,0,0,3.54,1.19c3.73,1.22,4.76.87.74,2-7.82,2.31-13.69.85-12,1.44,3.83.6,4.3.77,7.45.58.58,0,1.53-.14,2.11-.24,5.59-.91,2.59-1.24,8.46-1.65,4.63-.32,11.35.3,18-2,2-.09,11.75-2.14,21.41-2.44,3.57-.11,18.31-1.24,22.47-1.51,2.79-.18,39.44-1.42,43.66-1.34,6.27.28,20.64,2.45,20.85,3.62a1.93,1.93,0,0,1-.14,1.58c-.18.45-.47,3.3.05,2.67.63-.8,1.28-2,1.61-2.31.91-1,1.9-1.44,2.59-1,3.55,1.16,12.06,3.33,15.1,6.56.5.52.57.72.21,1-1.8,1.34-4,2.4-5.75,3.71l0,0a65.22,65.22,0,0,0-5,4.29c-1.23.79-4.85,2.13-3.83-.17a6.12,6.12,0,0,1,1.47-1.7c2.48-2.09,7.1-4.31,6.86-4.69-2.44.54-11.07,4.88-10.1,7.82.55,1.15,1.93,1.84,4.68.24a3.76,3.76,0,0,1,1.94-.29,24.85,24.85,0,0,0,8.71.13A.16.16,0,0,1,223.26,172.78ZM80.9,155.46c2-4.82,8-4.15,14.54-.49-2.64,1-9.64,2-14.22,1A.4.4,0,0,1,80.9,155.46Z"/><ellipse class="cls-15" cx="199.89" cy="157.26" rx="0.61" ry="0.77"/><path class="cls-15" d="M166.18,157.31c-.08,1.26-1.57,2.27-1.67,1.29C164.38,157.37,164.7,157.31,166.18,157.31Z"/><circle class="cls-15" cx="177.77" cy="164.67" r="0.53"/><circle class="cls-15" cx="169.89" cy="163.86" r="0.77"/><ellipse class="cls-15" cx="147.38" cy="162.78" rx="0.85" ry="0.31"/><path class="cls-15" d="M136.87,159.31c0,.27-.4.65-.9.65s-.91-.38-.91-.65.41-.48.91-.48S136.87,159.05,136.87,159.31Z"/><path class="cls-15" d="M112.62,163.85c0,.26-.41.64-.91.64s-.9-.38-.9-.64.4-.48.9-.48S112.62,163.58,112.62,163.85Z"/><path class="cls-15" d="M125.2,157.47c0-.23.35-.57.79-.57s.9.38.9.62-.46.37-.9.37S125.2,157.71,125.2,157.47Z"/><path class="cls-15" d="M77.26,163.24c-.18.28-.67.54-.94.36s-.23-.73,0-1a.62.62,0,0,1,.83-.18A.6.6,0,0,1,77.26,163.24Z"/><path class="cls-11" d="M91.76,155.38c-.25.39-.92.74-1.29.49s-.31-1-.06-1.38a.81.81,0,0,1,1.13-.24A.8.8,0,0,1,91.76,155.38Z"/><path class="cls-11" d="M87.75,153c-.26.38-.85.79-1.14.6s-.14-.89.12-1.28a.64.64,0,1,1,1,.68Z"/><path class="cls-11" d="M82.42,156.11c.25-.38.91-.75,1.29-.51s.33,1,.08,1.38a.81.81,0,0,1-1.13.26A.82.82,0,0,1,82.42,156.11Z"/><text class="cls-16" transform="translate(107.57 124.94)">E<tspan class="cls-17" x="6.72" y="0">S</tspan><tspan class="cls-18" x="13.17" y="0">T</tspan><tspan class="cls-19" x="19.25" y="0">.</tspan><tspan class="cls-20" x="22.19" y="0"> </tspan><tspan class="cls-19" x="22.82" y="0"> </tspan><tspan class="cls-21" x="25.36" y="0">1</tspan><tspan class="cls-22" x="29.95" y="0">9</tspan><tspan class="cls-21" x="36.24" y="0">8</tspan><tspan class="cls-19" x="43.01" y="0">6</tspan></text><text class="cls-23" transform="translate(99.46 215.01) scale(1 0.98)">A<tspan class="cls-24" x="6.47" y="0">NG</tspan><tspan class="cls-25" x="20.15" y="0">LE</tspan><tspan class="cls-26" x="31.5" y="0">R</tspan><tspan class="cls-27" x="38.19" y="0">S</tspan><tspan class="cls-28" x="44.32" y="0">.</tspan><tspan class="cls-24" x="47.87" y="0">O</tspan><tspan class="cls-29" x="54.51" y="0">R</tspan><tspan class="cls-30" x="61.08" y="0">G</tspan></text><path class="cls-4" d="M247.1,143.41l-.18-1c0-.58-.12-1.1-.19-1.5a115.86,115.86,0,0,0-5.61-20.64c-.12-.31-.23-.63-.35-1a102.69,102.69,0,0,0-5.32-11.75l0,0c-28.6-54.48-98.63-79-157-48l-1.16.65a97.21,97.21,0,0,0-16,10.56l-.53.44C48.42,81,38.45,93.18,30.12,107a85,85,0,0,0-4,7.91c-.06.11-.11.21-.16.32a99.44,99.44,0,0,0-7.26,21.25A115.32,115.32,0,0,0,16,160.84c-.3,4,.7,8.69,1.12,13.58a103.73,103.73,0,0,0,4.33,22.14c.19.62,1.4,4.64,3.21,9,4.74,14.83,14.71,27.85,25.88,38.71l.49.47.55.52c.59.56,1.17,1.11,1.77,1.65s1.3,1.19,2,1.78l0,0a117,117,0,0,0,10.07,7.93l.31.22c.8.55,1.6,1.11,2.42,1.65s1.87,1.23,2.82,1.82l.75.45q1.42.88,2.88,1.71l.45.26q3.6,2.06,7.31,3.83h0c1,.47,2,.92,3,1.37a118.09,118.09,0,0,0,47.32,10.23c3.87.58,8.69-.7,13.58-1.12,27.06-2.31,53.7-16.74,72.67-37.46h0l0,0a108.6,108.6,0,0,0,21.1-33.39l.21-.53c.25-.63.48-1.27.71-1.91s.5-1.39.73-2.1c.08-.21.16-.43.23-.64,0-.05,0-.1,0-.14.07-.22.15-.43.22-.64A126.32,126.32,0,0,0,247.1,143.41ZM58.42,242.18l-.11-.1c-.71-.65-1.4-1.33-2.1-2a112.75,112.75,0,0,1-20-26.41c-.25-.46-.5-.91-.74-1.37-.1-.18-.18-.36-.28-.53-.39-.77-.79-1.54-1.17-2.32l-.1-.2c-.4-.83-.79-1.66-1.18-2.5-.09-.2-.19-.41-.28-.62-.27-.6-.54-1.2-.8-1.81-1-2.44-2-4.91-2.86-7.41-6.33-18.51-6.65-39.62-2.94-58.65l.27-1.3c.29-1.14.63-2.89,1-4.56s.85-3.45,1.34-5.14l.08-.29c.14-.47.28-.94.43-1.41a92.56,92.56,0,0,1,22.38-37.8c1.42-1.46,2.69-2.76,3.87-3.94A145.31,145.31,0,0,1,70.9,70.76c1-.65,2.07-1.33,3.27-2.12,43-28,106.94-19.55,139.48,20.12a92,92,0,0,1,14,20.49l.09.17c.4.8.79,1.6,1.18,2.41,1.46,3.06,2.7,6,3.72,8.54q.39,1,.75,1.92l.18.47a143.8,143.8,0,0,1,5,16.56c.14.63.28,1.25.4,1.83a108.74,108.74,0,0,1-2.8,55.71c-.3,1-.64,2-1,3.06-.31.76-.57,1.55-.84,2.34s-.49,1.29-.73,1.88l-.69,1.61c-.09.17-.17.36-.25.52a127.82,127.82,0,0,1-6.52,12.54l-.29.49c-.15.26-.32.5-.48.76C189.85,277,109.36,289.36,58.42,242.18Z"/></g></svg>