<?xml version="1.0" encoding="utf-8"?>
<!-- Generator: Adobe Illustrator 23.0.2, SVG Export Plug-In . SVG Version: 6.00 Build 0)  -->
<svg version="1.1" id="Layer_1" xmlns="http://www.w3.org/2000/svg" xmlns:xlink="http://www.w3.org/1999/xlink" x="0px" y="0px"
	 viewBox="0 0 232.4 232.4" style="enable-background:new 0 0 232.4 232.4;" xml:space="preserve">
<style type="text/css">
	.st0{fill:#FFFFFF;}
	.st1{fill:#707070;}
	.st2{fill:#9BBE4B;}
	.st3{fill:#5D7033;}
	.st4{fill:#5D7032;}
	.st5{fill:#5E7033;}
	.st6{fill:#5E7133;}
	.st7{fill:#DCB66A;}
	.st8{fill:#848484;}
	.st9{fill:#7F7F7F;}
	.st10{fill:#7C7C7C;}
	.st11{fill:#757575;}
	.st12{fill:#737373;}
</style>
<path class="st0" d="M42.4,196.3l-0.1-0.1c-0.7-0.7-1.4-1.3-2.1-2c-7.9-7.8-14.7-16.7-20-26.4c-0.2-0.4-0.5-0.9-0.7-1.4l-0.3-0.5
	c-0.4-0.8-0.8-1.5-1.2-2.3l-0.1-0.2c-0.4-0.8-0.8-1.7-1.2-2.5c-0.1-0.2-0.2-0.4-0.3-0.6c-0.3-0.6-0.5-1.2-0.8-1.8
	c-1-2.4-2-4.9-2.9-7.4c-6.3-18.5-6.7-39.6-2.9-58.7c0.1-0.4,0.2-0.9,0.3-1.3c0.3-1.1,0.6-2.9,1-4.6s0.9-3.5,1.3-5.2l0.1-0.3
	c0.1-0.5,0.3-0.9,0.4-1.4c4.3-14.2,12-27.2,22.4-37.8c1.4-1.5,2.7-2.8,3.9-3.9c4.9-4.7,10.1-9.1,15.7-13.1l3.3-2.1
	c43-28,106.9-19.6,139.5,20.1c5.6,6.2,10.3,13.1,14,20.5l0.1,0.2c0.4,0.8,0.8,1.6,1.2,2.4c1.5,3.1,2.7,6,3.7,8.5l0.8,1.9l0.2,0.5
	c2,5.4,3.7,10.9,5,16.6c0.1,0.6,0.3,1.2,0.4,1.8c3.9,18.5,3,37.7-2.8,55.7c-0.3,1-0.6,2-1,3.1c-0.3,0.8-0.6,1.6-0.8,2.4
	s-0.5,1.3-0.7,1.9s-0.5,1.1-0.7,1.6c-0.1,0.2-0.2,0.4-0.2,0.5c-1.9,4.3-4.1,8.5-6.5,12.5l-0.3,0.5c-0.2,0.3-0.3,0.5-0.5,0.8
	C173.9,231.1,93.4,243.4,42.4,196.3z"/>
<title>Artboard 6</title>
<path class="st1" d="M27.8,158.3l-5.1,1.6l-1.1-2.3l17.9-5.1l1.5,3.2l-15.2,10.7l-1.1-2.4l4.4-3L27.8,158.3z M31,159.8
	c2.9-1.9,5.5-3.7,7.1-4.7V155c-1.4,0.6-5.3,1.7-8.1,2.6L31,159.8z"/>
<path class="st1" d="M29,171.5l15.2-10.2l1.6,2.4l-6.9,7.9c-0.7,0.8-1.5,1.7-2.3,2.4l0,0c1.9-1.4,4-2.9,6.5-4.5l4.5-3.1l1.3,1.9
	l-15.2,10.3l-1.6-2.3l7.9-9c0.7-0.8,1.2-1.3,1.6-1.7l0,0c-1.8,1.3-4,2.8-6.7,4.7l-4.7,3.1L29,171.5z"/>
<path class="st1" d="M43.7,190.2l-1.3-1.4c0.2-0.3,0.7-0.8,1-1.1c-1.1,0.4-2.4,0-3.1-0.9c-1.8-2-1-3.9,1.3-6l6.5-5.9
	c2.2-2,4.6-2.5,6.6-0.3c2.5,2.7,0.9,4.8-0.7,6.2l-0.4,0.4l-1.7-1.8l0.5-0.4c0.8-0.8,1.7-1.7,0.7-2.8c-0.8-0.9-1.7-0.7-3,0.4l-7,6.3
	c-1.2,1.1-1.6,2.1-0.8,2.9c1,1.1,2.1,0.4,3.6-1l2.1-1.8l-1.2-1.3l1.6-1.4l2.9,3.2L43.7,190.2z"/>
<path class="st1" d="M60.3,180.9l1.9,1.6l-10.4,12.3l3.6,3l-1.6,1.5l-5.3-4.5L60.3,180.9z"/>
<path class="st1" d="M68.6,199.3l-3.5-2.3l-3.5,5.3l4,2.6l-1.5,1.7l-5.8-3.8l10-15.4l5.8,3.8l-1.2,1.9l-3.7-2.4l-2.8,4.4l3.5,2.3
	L68.6,199.3z"/>
<path class="st1" d="M77.4,193.1l3.3,1.6c2.6,1.2,3.5,2.9,2.1,5.8l-0.3,0.7c-1.2,2.4-2.4,2.8-3.4,2.7c0.8,0.9,1,1.9,0,4.1
	c-0.8,1.7-1.6,3.4-2.3,5.2l-2.2-1c0.6-1.7,1.3-3.4,2.2-5c1-2.1,0.9-2.7-0.7-3.5l-0.8-0.4l-3.6,7.6l-2.3-1.1L77.4,193.1z M76.3,201.4
	l0.8,0.4c1.5,0.7,2.3,0.3,3.1-1.5l0.3-0.6c0.7-1.4,0.7-2.4-0.9-3.1l-0.8-0.4L76.3,201.4z"/>
<path class="st1" d="M86.5,211l-0.3,1.1c-0.4,1.4-0.2,2.4,0.9,2.8s1.8-0.5,2.3-2c0.6-1.9,0.4-2.8-1.1-4.8s-2.2-3.3-1.4-5.9
	c0.7-2.3,2.1-4.3,5.1-3.4s3,3.2,2.4,5.2l-0.3,0.9l-2.4-0.7l0.3-0.8c0.4-1.3,0.4-2.2-0.6-2.5s-1.6,0.5-2,1.8s-0.3,2.1,0.9,3.8
	c2,2.7,2.5,4,1.6,6.9c-0.8,2.5-2.3,4.5-5.5,3.6s-3.3-3.2-2.6-5.5l0.3-1L86.5,211z"/>
<path class="st1" d="M106.6,215.2l-1.2,5.2l-2.5-0.2l4.6-18l3.5,0.3l1.6,18.5l-2.6-0.2l-0.4-5.4L106.6,215.2z M109.5,213.2
	c-0.2-3.5-0.4-6.6-0.4-8.5H109c-0.2,1.5-1.2,5.4-1.8,8.3L109.5,213.2z"/>
<path class="st1" d="M120.5,215.6l0.1,1.1c0.1,1.5,0.7,2.3,1.8,2.3s1.6-1.1,1.5-2.6c-0.1-2-0.6-2.7-2.7-4.1s-3.2-2.3-3.3-5
	c-0.1-2.4,0.4-4.8,3.6-4.9s3.9,1.9,4,4.1l0.1,0.9l-2.5,0.1l-0.1-0.9c-0.1-1.4-0.4-2.2-1.5-2.2s-1.3,1-1.2,2.3s0.4,2.1,2.2,3.2
	c2.8,1.8,3.7,2.9,3.9,6c0.2,2.6-0.6,5-3.9,5.2s-4.2-1.8-4.4-4.2l-0.1-1.1L120.5,215.6z"/>
<path class="st1" d="M133.8,214.2l0.2,1.1c0.3,1.5,0.9,2.2,2.1,2s1.4-1.3,1.1-2.8c-0.4-2-1-2.6-3.2-3.7s-3.5-1.9-4-4.5
	c-0.5-2.3-0.2-4.8,2.9-5.4s4.2,1.4,4.6,3.5l0.2,0.9l-2.4,0.5l-0.2-0.8c-0.3-1.4-0.7-2.2-1.8-2s-1.2,1.2-0.9,2.5s0.7,2,2.6,2.9
	c3,1.4,4.1,2.4,4.7,5.4c0.5,2.5,0.1,5.1-3.2,5.7s-4.4-1.2-4.9-3.6l-0.2-1L133.8,214.2z"/>
<path class="st1" d="M150.3,201l2.9,8.4c1.1,3.2,0.3,5.2-2.6,6.2s-4.6-0.3-5.6-3.3l-2.9-8.4c-1.1-3.2-0.1-5.2,2.5-6.1
	S149.2,197.9,150.3,201z M144.4,202.8l3.1,8.9c0.6,1.7,1.4,2.1,2.5,1.8s1.5-1.3,0.9-3l-3-8.8c-0.5-1.6-1.4-2.2-2.5-1.8
	S143.9,201.1,144.4,202.8z"/>
<path class="st1" d="M165.4,202.8l0.3,0.6c1,1.9,1.9,4.6-1.4,6.3c-3,1.5-4.6-0.1-5.8-2.5l-4.2-8.3c-1.3-2.6-0.9-4.7,1.5-6
	c3-1.5,4.6,0.2,5.7,2.4l0.4,0.7l-2.2,1.1l-0.5-0.9c-0.6-1.2-1.3-1.9-2.3-1.3s-0.9,1.4-0.3,2.7l4.4,8.6c0.7,1.3,1.4,2.1,2.5,1.5
	s0.9-1.6,0.2-2.9l-0.4-0.8L165.4,202.8z"/>
<path class="st1" d="M164.8,187.8l10.1,15.3l-2.1,1.4l-10.1-15.3L164.8,187.8z"/>
<path class="st1" d="M178.7,193.7l2.9,4.5l-1.9,1.6l-9.5-16l2.7-2.3l14.3,12l-2,1.7l-4.1-3.5L178.7,193.7z M179.3,190.2
	c-2.6-2.3-5-4.4-6.3-5.7l-0.1,0.1c0.9,1.2,3,4.6,4.6,7.2L179.3,190.2z"/>
<path class="st1" d="M179.7,178.1l-2,2.2l-1.7-1.6l5.8-6.3l1.7,1.5l-2,2.2l11.8,10.9l-1.7,1.8L179.7,178.1z"/>
<path class="st1" d="M185.1,167.5l14.8,10.9l-1.5,2l-14.8-10.9L185.1,167.5z"/>
<path class="st1" d="M196,158.9l7.7,4.4c3,1.7,3.6,3.7,2.2,6.4s-3.6,2.8-6.4,1.2l-7.7-4.4c-2.9-1.6-3.5-3.9-2.1-6.3
	S193.1,157.3,196,158.9z M192.8,164.1l8.1,4.6c1.5,0.9,2.5,0.7,3-0.3s0.3-1.9-1.3-2.8l-8.1-4.6c-1.5-0.8-2.5-0.8-3.1,0.3
	S191.3,163.2,192.8,164.1L192.8,164.1z"/>
<path class="st1" d="M210.7,159.4l-17.1-6.5l1-2.7l10.5,1c1.1,0.1,2.2,0.3,3.3,0.5l0,0c-2.3-0.7-4.7-1.6-7.5-2.7l-5.1-2l0.8-2.2
	l17.1,6.5l-1,2.6l-11.9-1.2c-1-0.1-1.8-0.3-2.3-0.3l0,0c2.1,0.7,4.6,1.6,7.7,2.8l5.3,2L210.7,159.4z"/>
<path class="st1" d="M47.8,41.8l-2.2,2L44,42.2l6.3-5.7l1.5,1.7l-2.2,2l10.8,11.9l-1.8,1.7L47.8,41.8z"/>
<path class="st1" d="M54.8,32.7l2.1-1.4l4.2,6.1l2.8-2l-4.2-6.1l2.1-1.4L72.2,43l-2.1,1.4l-5-7.1l-2.8,2l5,7.1l-2.1,1.4L54.8,32.7z"
	/>
<path class="st1" d="M75.8,34.6l1.7,5.1l-2.3,1.1L69.8,23l3.2-1.6l10.9,15.1l-2.4,1.2l-3.1-4.4L75.8,34.6z M77.2,31.3
	c-2-2.9-3.7-5.4-4.8-7.1h-0.1c0.6,1.4,1.8,5.2,2.7,8.1L77.2,31.3z"/>
<path class="st1" d="M94.3,25.7c-0.9-3.1-1.9-6.7-2.3-8.7l0,0c0.4,3.1,1.3,10.9,2,16.3l-2.3,0.7c-2-4.4-5.4-11.9-6.7-15l0,0
	c0.6,2,1.8,6,2.7,9l1.8,6.5L87.3,35l-5-17.6l3.6-1c2.1,4.6,4.6,10,5.5,12.3l0,0c-0.4-2.5-0.9-8.7-1.4-13.4l3.5-1l5,17.6l-2.3,0.7
	L94.3,25.7z"/>
<path class="st1" d="M108.9,21.9l-4.1,0.5l0.7,6.3l4.7-0.5v2.3l-6.9,0.8L101.1,13l6.8-0.8l0.3,2.3l-4.3,0.5l0.6,5.2l4.1-0.5
	L108.9,21.9z"/>
<path class="st1" d="M116.3,25v1.1c0,1.5,0.4,2.4,1.6,2.4s1.7-1,1.7-2.5c0-2-0.4-2.8-2.4-4.3s-3-2.6-3-5.3c0-2.4,0.8-4.7,4-4.6
	s3.8,2.3,3.8,4.4V17l-2.5,0v-0.9c0-1.4-0.2-2.3-1.3-2.3s-1.4,0.9-1.4,2.2c0,1.5,0.2,2.1,1.9,3.4c2.7,2,3.5,3.2,3.4,6.3
	c0,2.6-1,5-4.3,4.9s-4.1-2.1-4-4.6V25L116.3,25z"/>
<path class="st1" d="M136.3,13.8l3.6,0.8c2.8,0.6,4,2.1,3.3,5.2l-0.2,0.7c-0.6,2.6-1.8,3.2-2.7,3.3c1,0.7,1.4,1.6,0.9,4
	c-0.5,1.8-0.8,3.7-1.1,5.5l-2.3-0.5c0.2-1.8,0.5-3.6,1-5.4c0.5-2.2,0.3-2.9-1.4-3.2l-0.8-0.2l-1.9,8.1l-2.5-0.6L136.3,13.8z
	 M137,22.1l0.9,0.2c1.6,0.4,2.3-0.2,2.7-2.2l0.2-0.7c0.3-1.5,0.2-2.5-1.5-2.9l-0.9-0.2L137,22.1z"/>
<path class="st1" d="M152.9,18.5l-6.1,17.3l-2.4-0.8l6.1-17.3L152.9,18.5z"/>
<path class="st1" d="M160.8,21.8l-2.4,7.4c-0.8,2.4-1.6,5.2-2.3,7l0,0c1-1.7,2.7-4,4.1-6.1l4.4-6.6l2.4,1.2l-11,15l-2.8-1.4
	l5.2-17.9L160.8,21.8z"/>
<path class="st1" d="M172.3,39.8l-3.4-2.3l-3.6,5.2l3.9,2.7l-1.5,1.7l-5.7-3.9L172.3,28l5.7,3.9l-1.3,1.9l-3.6-2.5l-2.9,4.3l3.4,2.4
	L172.3,39.8z"/>
<path class="st1" d="M183.2,36.1l2.7,2.5c2.1,1.9,2.4,3.8,0.2,6.2l-0.5,0.5c-1.8,2-3.2,1.9-4,1.5c0.5,1.1,0.4,2.1-1.3,3.9
	c-1.3,1.3-2.6,2.7-3.8,4.2l-1.8-1.7c1.1-1.5,2.3-2.8,3.6-4.1c1.6-1.7,1.7-2.3,0.4-3.5l-0.6-0.6l-5.7,6.1l-1.8-1.7L183.2,36.1z
	 M179.7,43.6l0.6,0.6c1.2,1.1,2.1,0.9,3.4-0.5l0.5-0.5c1.1-1.1,1.4-2,0.1-3.2l-0.7-0.6L179.7,43.6z"/>
<path class="st2" d="M116.6,194.4c-32.2-0.2-61.1-19.7-73-48.8c-0.6-1.4-0.9-2.9-1.5-4.2c-1-2,0.3-2.7,1.7-3.4c2-1,2.1,0.8,2.6,1.9
	c3.8,10.7,10,20.4,18.1,28.3c37.4,36.9,100.5,24.2,120.6-24.4c0.4-1.3,0.9-2.5,1.5-3.7c0.9-1.3,2.2-2.1,3.6-1.6
	c1.1,0.4,0.8,2.4,0.4,3.5c-8.8,27.1-36.5,49.1-64.8,51.5C122.5,193.9,119.2,194.8,116.6,194.4z"/>
<path class="st2" d="M194.1,101.7C184.9,49.1,126.5,20.8,79.3,46c-14.3,7.6-24.8,18.9-32.9,32.5c-3.1,5.3-5.2,11.2-6.1,17.3
	c-0.2,1.2-1.2,2.5,0.1,3.7l0,0c1.6,0.8,2.5,0.7,3,0.3c0.3-0.4,1-4.6,1.5-6.3c2.8-10.6,8.3-20.3,16-28.2c8.6-8.9,10.2-9.6,15.6-13.1
	C105.8,33,149.3,38.8,171.5,66c8.6,9.3,14.2,22.7,17,34.8c0.6,2.7,0.7,5.1,4,5.6C196.1,105.8,194.3,103.2,194.1,101.7z"/>
<path class="st3" d="M64,104.6c-2.4,3.6-4,3.4-7.1,2.1c-2.2-1.1-4.2-2.4-6-4c0.9-2.1,1.1-3.2,1.9-4.8c0.2-0.3-0.8-0.5-2.4-0.8
	c1-2,9.8-21.1,10.8-21.1c0.3,0,8.4,17.4,11,21.3c-1.4,0-1.1,0-2.8,0c0.7,1.2,0.6,1.8,2,5C68.8,101.9,64.9,103.2,64,104.6z"/>
<path class="st4" d="M173.6,102.2c-4.4-0.5-12.3-0.1-16.4-0.1c-0.1,0-0.1-0.1-0.1-0.1c0,0,0,0,0-0.1c1.2-1.8,2.3-3.6,3.3-5.5l0,0
	c-1.6,0-2.2-0.1-3.9-0.1l0,0c6.8-14.2,12.8-26,13.1-26c1.4,2.5,9.5,20,12.2,25.9c-1,0.1-1.9,0.2-2.9,0.2c-0.1,0-0.1,0.1-0.1,0.2
	c0,0,0,0,0,0c0.3,0.9,2.3,4.5,3.2,6.4c0.1,0.3,0.1,0.3-0.1,0.2C178.8,102.8,178.5,102.8,173.6,102.2z"/>
<path class="st5" d="M77.7,103.9c0.5-0.8,1-1.8,2.1-3.6c-1,0-1.3,0-2.2,0c0,0-0.1,0-0.1-0.1c0,0,0,0,0,0c3.4-7.5,6-12.1,8.6-17.5
	c2.6,6.3,4.3,9.2,8.4,17.7c-1.7,0-2.3-0.1-2.2,0.3c0.6,1.4,1.3,2.5,2.1,4.4c0,0.1,0,0.1-0.1,0.1c0,0,0,0,0,0c-3.6,0-9,0.7-12.3,0.9
	c-0.7,0-2.6-1.2-4.1-1.8C77.8,104.3,77.6,104,77.7,103.9z"/>
<path class="st6" d="M146.4,83.4c2.4,4.9,3,6,7.1,15l0,0c-0.6,0-1,0-2.2,0l0,0c1.1,1.9,1.1,2.1,2.3,3.8l0,0h-15.2
	c0.2-0.4,1.3-2.6,2-4.1h-1.6c3.9-8.4,4.5-9.9,6.8-14.9C145.9,82.7,146.1,82.7,146.4,83.4z"/>
<path class="st7" d="M140.1,57.3c-1.5,1.1-3.1,2.5-3.7-0.7C137.7,56.4,139.1,56.1,140.1,57.3z M140.7,53.1c-1.3-1.4-3.5-1.5-4.9-0.3
	c-2.1,1.7-2.3,3.8-0.4,5.9c1.6,2.1,3.4,2,5.2,0.2l0,0C142.8,57.1,142.7,55.1,140.7,53.1z"/>
<path class="st7" d="M96.3,58.3l-3.8-0.1c-0.1-1.6,0.9-1.9,2.2-1.8S96.3,57.2,96.3,58.3z M97.3,53.2c-1.6-1.9-4-1.8-5.7,0
	c-2,2.1-2,4.4,0.8,6.1c1.2,0.9,2.8,0.9,4,0l0,0C99.2,57.7,99.1,55.4,97.3,53.2L97.3,53.2z"/>
<path class="st7" d="M118.2,53.4c-1.3,0.2-2.7-0.1-3.8-1c0.5-1.2,1.4-1.8,2.7-1.4S118.4,52.3,118.2,53.4z M118.8,47.6
	c-1.9-1.5-3.8-0.9-5.2,0.8c-1.7,1.9-1.6,3.9,0.7,5.4c1.8,1.4,3.5,1.4,5.1-0.3l0,0C121.3,51.3,121,49.3,118.8,47.6z"/>
<path class="st8" d="M89.5,124.5c-0.1,1.1-0.6,1.7-1.5,1.8c-0.8,0.2-1.6-0.3-1.8-1.1c0-0.1,0-0.1,0-0.2c-0.1-0.9,0.6-1.4,1.6-1.5
	S89.4,123.5,89.5,124.5z"/>
<path class="st1" d="M53.4,125.9c0.1,0.8-0.5,1.5-1.3,1.5c0,0-0.1,0-0.1,0c-0.9,0.1-1.6-0.2-1.7-1.2c0-0.8,0.6-1.5,1.5-1.6
	c0.7-0.2,1.4,0.2,1.6,0.9C53.3,125.7,53.4,125.8,53.4,125.9z"/>
<path class="st9" d="M86,115.9c-0.4,0.9-1,1.8-2.2,1.3c-0.5-0.2-1.2-1-1.1-1.3c0.3-1,1.3-1.6,2.3-1.4
	C85.6,114.6,86.1,115.2,86,115.9C86,115.8,86,115.9,86,115.9z"/>
<path class="st10" d="M161.4,112.3c0.2-0.8,1-1.3,1.8-1.3c0.6-0.1,1.2,0.4,1.2,1c0,0.2,0,0.4-0.1,0.6c-0.3,0.9-1.1,1.1-1.9,0.9
	c-0.6,0-1.1-0.5-1-1.1C161.4,112.4,161.4,112.4,161.4,112.3z"/>
<path class="st11" d="M178.4,122.9c0-1.1,0.2-2.3,0.6-3.3c0.5-1.3,1.2-2.6,2-3.8c-1.4,5.4-1.8,5.2-1.7,7.5c0.2,2.3,1,4.4,2.3,6.3
	c0.8,0.7,3.6,1.3,5.8,1.3c-0.1-1.6,0.4-2.6-0.9-5.5c0,0-1.9-2.3-0.7-6.5c0.9,5.5,3.2,6.2,3.7,8.5c-0.1,5,0.1,5-0.2,5
	c-1.4,0-2.8,0-4.2-0.2c-1.4-0.1-2.7-0.6-3.8-1.4c-0.7-0.6-1.2-1.3-1.6-2.1C178.8,126.8,178.4,124.9,178.4,122.9z"/>
<path class="st12" d="M197.6,116c0-0.9-0.1-1.6-1.4-1.6s-3.1,0.9-3.1,1.8c0.2,1.3,1.2,2.3,2.4,2.5
	C196.8,118.7,197.6,116.9,197.6,116z"/>
<path class="st1" d="M154.3,134.6c-13.3,6.1-60.9-2.8-75.4-7.3c0-0.2,0.4,0,2.2,0.3c27.4,4.9,56.2,9.5,71.2,7.6L154.3,134.6z"/>
<path class="st10" d="M191.5,117.7c2.8,3,5.2,2,6.9,0.7c-2,0.2-4.2,1.1-6.6-0.8C191.5,117.3,191.2,117.2,191.5,117.7z"/>
<path class="st1" d="M211.1,123.3c-2.3,0.2-5.4,0.3-6.6,0.3c-0.5,0-0.3-0.6,0-0.9s4.1-3.1,6.2-4.6c0.3-0.2,0.4-0.6,0.2-1
	c0,0,0,0,0,0c-4.4-4.1-9.9-6.8-15.7-8h-0.1c-1.7-0.7-3.4-1.2-5.2-1.6h-0.1c-3.8-1.7-14.3-2.7-16.4-3c-4.9-0.8-15.4-0.3-24.8-0.4
	c-6.4-0.1-14.5,0.6-22.6,0.6c-1.8-0.1-11-9.5-13.7-12c-0.7-0.7-1.8-1.3-2-0.5c-0.7,2.6-7,9-9.9,12.5c-0.2,0.2-0.2,0.5-0.3,0.8
	c0,0.7-0.1,1.5-0.9,1.5c-8.1,0-13.5,2.2-18.4,2.1c-0.7-0.2-1.4-0.5-2-1c-3.1-2.2-6.9-3.4-10.7-3.3c-1.2,0-2.6,1-4.3,4
	c-1.5,3.2-4.6,1.5-5.7,1.1c-1.9-0.7-21-8.9-22.5-9.7c-5.1-2.4-10.4-4.4-15.8-6c-1.4-0.4-3.4-0.9-4.5,0.4c-1,1.1,0,2.6,0.5,3.7
	c2.3,5.3,4.4,10.7,7.1,15.8c2.3,4.1,2.3,7.7-0.3,11.5l0,0c-2.7,3.6-10.7,16.2-9.5,20.1c0.2,0.7,2,0.4,3.8,0.5
	c6,0.3,10.4-2.3,20.9-7.3c3.1-1.8,12.7-7,16-8.3c6.2-2.4,9.3-2.3,16-0.6c0.5,0.1-1.5,0.6-2.3,1s-0.9,1.8,0.1,2.7
	c2.9,3.9,6.2,7.4,5,12.5c-0.4,1.7,1.6,2.3,2.7,1.5c2.9-1.8,10.8-10.1,11.6-11.9c0.2-0.5,1-0.5,1-0.5c3.3,0.3,11.5,4.4,18.8,6.1
	c3.9,1.5,3.4,2.4,5.2,6.3c1.2,2.8,2.4,6,5.5,7.8c0.6,0.3,2.3,0.9,7.5-8.6c0.7-1,2.1-2.5,3.5-2.4c6.4,0.2,17.6,0.5,23.8,0.4
	c1.5,0-1.6,2.3-2.7,3.3c-0.2,0.3-0.4,0.6-0.6,0.9c-0.7,0.9,0.8,0.8,1.1,0.7c8.7-2.4,16.4-6.1,24.7-8.9c5.4-1.5,13.3-3.4,18.6-5
	c5-1.5,11.2-4.1,14.2-6.6l0,0c2.1-1.9,4-3.5,4-4.9C211.8,123.7,211.8,123.3,211.1,123.3z M110.4,95.2c0.4-0.6,1.2-0.7,1.8-0.3
	c0.1,0,0.1,0.1,0.2,0.1c0.7,0.7,10.6,8.3,11,9.8c0.6,1.8-5-3.5-9-6.4c4.9,4.8,6.5,5.5,7,6.5s-1.9,0.4-2.6,0.2
	c-2.7-1.9-5.2-4-7.6-6.3c-0.4,0,3.8,4,5.3,6.3c-0.8,0.2-1.9,0.4-2.2-0.2s-4.1-3.4-4.4-3.4s2.8,3,2.5,3.7c-0.5,0.5-1.3,0.7-2,0.5
	c-0.7-0.3-2.7-2.7-3-2.5c0.2,0.5,0.4,0.9,0.7,1.3c0.3,0.4,0.2,1.1-0.2,1.4c-0.2,0.1-0.4,0.2-0.5,0.2c-1.1,0.1-2.1,0.1-3.2,0
	c-0.7-0.3-1.4-0.6-2-1.1C105.2,102,108,98.7,110.4,95.2z M82.2,139.6c-1.9,1.8-3.9,3.4-6.1,4.8c-0.3,0.2-0.7,0.2-0.7-0.3
	c0-0.1,0-1.4,0-1.9c0-0.5,0.3-1,0.8-1.2c2.3-1.4,6.4-4.6,6.2-4.8s-4.8,2.5-5.1,2.6c-2.1,1-3.1,0.4-2.9-0.4c0.3-0.9,4.9-2.8,4.9-3.8
	c0-0.4-3.2,1.2-5.3,1.6c-0.8,0.1-1.6-1.1-1.8-1.2s-0.4-0.5-0.3-0.6l2.2-1.9c0.1,0,0.1-0.1,0-0.2c0,0-0.1-0.1-0.1-0.1l-2.3,0.6
	c-0.4,0.1-0.8,0.1-1.2-0.2l-0.9-0.5c-0.3,0-0.4-1,0-1c1.2-0.1,2.3-1,3.6-1c3.7-0.1,10.3,2.8,12.9,3.7c0.2,0.1,1,0.6,0.8,0.8
	C86,135.7,83.1,138.7,82.2,139.6z M207.3,126.9c-3.7,3.2-17,7.7-22.5,8.5c-2.7,0.4-4.1,0.4-6.7-2c-1.9-1.8-3.2-2-4.1-4.3
	s-1.2-3.4-1.1-5.2c0-1.5,0.2-3.1,0.6-4.6c1.2-2.8,2.6-5.5,4.4-8c1.1-2.2-6,5.9-6.6,10c-1.3,6.9,1.5,12.4,6.9,15.1
	c0.2,0.1,0.3,0.4,0.2,0.6c0,0.1-0.1,0.2-0.2,0.2c-1,0.5-2.1,0.7-7.7,3c-0.1,0-0.1,0-0.2,0c-0.5-0.5,3-4.4,2.7-4.7
	c0,0-0.1-0.2-0.2-0.1c-2.8,3.5-11.7,9.5-18.6,10.6c-0.1-0.9,7.9-3.8,9.7-6l0,0c-1.6,0.8-3.9,1.5-5.4,2.1c-0.7,0.3-2.1,0.7-2.4,0.2
	s1.1-1.9,1.8-2.3c2-1.1,4-2.1,6.1-3c2.2-0.7,4.4-0.9,5.2-1.7c-6.3,0.3-7.9,2-11.1,3.1c-0.2,0.1-0.3-0.6,0.2-1.1
	c3.3-3,5.2-4.1,11.1-4.8c0.1,0,0.7-0.2,0-0.1c-12.4,0.9-13.8,5.1-15,9.4c-0.1,0.4-0.6,0.9-1.1,0.9c-3.3-0.1-17.9-0.3-25.1-0.4
	c-0.4,0-0.9-0.1-1-0.2c0.4-1.9,1.2-3.4,1.3-5.7c-1.2,3.3-2.6,6.6-4.3,9.8c-1.2,2.6-2.9,4.9-4.9,6.9c-0.7,0.6-1.1,0.1-1.4-0.2
	c-0.7-0.6-1.1-1.2-0.6-1.4c0.7-0.2,4.8-4.1,4.6-8c-1.8,4.2-3.3,6.6-5.5,6.9c-1.1,0.2-1.6-1.2-2.4-3.6c-0.1-0.3,0.1-0.5,0.3-0.6
	c0,0,0,0,0,0c2.1-0.5,3.9-2,4.8-4.1c-2.3,2.8-4.3,3.5-5.5,3c-0.7-0.4-1.5-2.8-1.9-5.2c-0.2-0.7-0.1-1.4,0.3-2
	c0.6-0.6,1.4-0.8,2.2-0.7c2.2,0.8,3,0.5,3.7-0.7c-0.4,0-0.5,0.6-1.7,0.6s-0.9-1-3.2-0.8c-0.5,0-0.9,0.2-1.3,0.5
	c-1.9,1.5-0.9,3.5-2,3.3c-5.6-1.1-18.3-6.3-25.1-9c-6.5-2.6-14.3-3.9-19.6-4.7c-0.3,0-0.5-0.3-0.4-0.5c0-0.2,0.1-0.3,0.2-0.4
	c2.9-1.5,6.5-2.3,10.6-3.1c-2.7,0.2-5.4,0.6-8,1.2c-3.5,0.8-3.6,0.9-5.8,1.4c-9.4,2.6-12.7,5.5-23.1,10.9c-4.8,2.7-9.9,5-15.2,6.9
	c-2.3,0.5-4.6,0.8-7,0.9c-1.1,0-0.7-2.4,0.4-2.8c6.4-2.3,15.9-5.9,23.4-9.5c0.1-0.1-0.2,0-0.3,0c-7.4,1.8-15,5.2-17.7,6
	c-1.5,0.4-3.1,0.7-4.6,0.9c0.4-0.3,1.2-2.7,2.8-3.3c6.9-2.7,19.2-7.4,19.3-7.4c0.4-0.2,0.2-0.3,0.1-0.3c-6.2,1.2-12.3,2.9-18.2,5.3
	c-0.5,0.2-0.8,0.2-0.8,0c-0.2-0.8,1.1-2.6,2.7-3.4c1.7-0.9,13.5-2.9,15.3-4.7c-7.6,1.4-10.9,1.8-14.4,2.6c0.8-1.8,1.5-2.9,2.5-3.4
	c2.5-1.4,5.3-2.4,8.1-3.1c0.2-0.9-7.6,1.3-7.6,0.8c0.3-4-0.4-5.5-1.4-6.9c-0.4-0.6,0.2-1.3,0.8-1.4c2.6,0,8.4,0.6,8.6,0.5
	c-3-0.9-6-1.5-9.1-2c-0.7-0.1-1.4-0.4-1.9-1c-1.4-1.7-2.5-3.6-3-5.8c-0.1-0.8,1.4-1.1,2.1-0.8c1.8,0.8,3.6,1.5,5.5,2
	c4.3,1.2,9.8,3.2,11.6,2.9c-2.8-1-7-2.5-10.9-4c-2.3-1.2-12.8-3.4-12.5-9.8c0-0.1,0.4,0,0.5,0c6.2,0.5,32.5,13,34.3,13.8
	c1.1,0.5,2.3,0.9,3.5,1.2c3.7,1.2,4.8,0.9,0.7,2c-7.8,2.3-13.7,0.8-12,1.4c3.8,0.6,4.3,0.8,7.4,0.6c0.6,0,1.5-0.1,2.1-0.2
	c5.6-0.9,2.6-1.2,8.5-1.7c4.6-0.3,11.3,0.3,18-2c2-0.1,11.8-2.1,21.4-2.4c3.6-0.1,18.3-1.3,22.5-1.5c2.8-0.2,39.4-1.4,43.7-1.3
	c6.3,0.3,20.6,2.4,20.9,3.6c0.2,0.5,0.1,1.1-0.1,1.6c-0.2,0.4-0.5,3.3,0.1,2.7s1.3-2,1.6-2.3c0.9-1,1.9-1.4,2.6-1
	c3.6,1.2,12.1,3.3,15.1,6.6c0.5,0.5,0.6,0.7,0.2,1c-1.8,1.3-4,2.4-5.8,3.7l0,0c-1.7,1.3-3.4,2.8-5,4.3c-1.2,0.8-4.9,2.1-3.8-0.2
	c0.4-0.7,0.9-1.2,1.5-1.7c2.5-2.1,7.1-4.3,6.9-4.7c-2.4,0.5-11.1,4.9-10.1,7.8c0.6,1.2,1.9,1.8,4.7,0.2c0.6-0.3,1.3-0.4,1.9-0.3
	c2.9,0.6,5.8,0.6,8.7,0.1c0.1,0,0.2,0,0.3,0.2C207.5,126.7,207.4,126.8,207.3,126.9C207.3,126.9,207.3,126.9,207.3,126.9z
	 M64.9,109.6c2-4.8,8.1-4.2,14.6-0.5c-2.7,1-9.6,2-14.2,1C65,110,64.9,109.8,64.9,109.6C64.9,109.6,64.9,109.6,64.9,109.6z"/>
<ellipse class="st12" cx="183.9" cy="111.3" rx="0.6" ry="0.8"/>
<path class="st12" d="M150.2,111.4c-0.1,1.3-1.6,2.3-1.7,1.3C148.4,111.5,148.7,111.4,150.2,111.4z"/>
<circle class="st12" cx="161.8" cy="118.8" r="0.5"/>
<circle class="st12" cx="153.9" cy="117.9" r="0.8"/>
<ellipse class="st12" cx="131.4" cy="116.9" rx="0.9" ry="0.3"/>
<path class="st12" d="M120.9,113.4c0,0.3-0.4,0.7-0.9,0.7s-0.9-0.4-0.9-0.7s0.4-0.5,0.9-0.5S120.9,113.1,120.9,113.4z"/>
<path class="st12" d="M96.6,117.9c0,0.3-0.4,0.7-0.9,0.7s-0.9-0.4-0.9-0.7s0.4-0.5,0.9-0.5S96.6,117.7,96.6,117.9z"/>
<path class="st12" d="M109.2,111.6c0-0.2,0.4-0.6,0.8-0.6s0.9,0.4,0.9,0.6s-0.5,0.4-0.9,0.4S109.2,111.8,109.2,111.6z"/>
<path class="st12" d="M61.3,117.3c-0.2,0.3-0.7,0.5-0.9,0.4s-0.2-0.7,0-1c0.2-0.3,0.5-0.4,0.8-0.2C61.4,116.7,61.5,117.1,61.3,117.3
	L61.3,117.3z"/>
<path class="st1" d="M75.8,109.5c-0.3,0.4-0.9,0.7-1.3,0.5s-0.3-1,0-1.4c0.2-0.4,0.7-0.5,1.1-0.3c0.4,0.2,0.5,0.7,0.3,1.1
	C75.9,109.4,75.8,109.4,75.8,109.5L75.8,109.5z"/>
<path class="st1" d="M71.8,107.1c-0.3,0.4-0.8,0.8-1.1,0.6s-0.1-0.9,0.1-1.3c0.1-0.3,0.4-0.6,0.8-0.5c0.3,0.1,0.6,0.4,0.5,0.8
	C71.9,106.9,71.9,107,71.8,107.1L71.8,107.1z"/>
<path class="st1" d="M66.4,110.2c0.3-0.4,0.9-0.8,1.3-0.5s0.3,1,0.1,1.4c-0.2,0.4-0.7,0.5-1.1,0.3C66.3,111.1,66.2,110.6,66.4,110.2
	C66.4,110.2,66.4,110.2,66.4,110.2z"/>
<path class="st1" d="M96.1,74h-2.4v3.7h2.7L96.3,79h-4V68.3h3.9v1.3h-2.5v3h2.4L96.1,74z"/>
<path class="st1" d="M100,75.9v0.6c0,0.9,0.3,1.4,1,1.4s0.9-0.6,0.9-1.5c0-1.2-0.3-1.6-1.4-2.5s-1.7-1.5-1.7-3
	c0-1.4,0.4-2.8,2.2-2.8s2.2,1.3,2.2,2.5v0.5h-1.4v-0.5c0-0.8-0.1-1.3-0.8-1.3s-0.8,0.5-0.8,1.3s0.2,1.2,1.1,1.9c1.6,1.2,2,1.8,2,3.6
	c0,1.5-0.5,2.9-2.4,2.9s-2.3-1.2-2.3-2.6V76L100,75.9z"/>
<path class="st1" d="M106.5,69.7h-1.7v-1.3h4.9v1.3h-1.7V79h-1.4L106.5,69.7z"/>
<path class="st1" d="M111.4,79v-2.3h1.4V79H111.4z"/>
<path class="st1" d="M118.2,79v-9c-0.4,0.1-0.7,0.1-1.1,0.1V69c0.6-0.1,1.1-0.3,1.4-0.7h1.1V79H118.2z"/>
<path class="st1" d="M123.5,76.7v0.2c0,0.7,0.3,1.1,0.8,1.1s0.9-0.5,0.9-2v-1.6c-0.3,0.5-0.8,0.8-1.3,0.7c-1.3,0-1.9-1-1.9-2.5v-1.5
	c0-1.6,0.8-2.6,2.3-2.6s2.3,0.9,2.3,2.7v4.4c0,1.9-0.2,3.5-2.3,3.5c-1.8,0-2.2-1.2-2.2-2.4v-0.1L123.5,76.7z M123.4,70.9v1.6
	c0,0.7,0.2,1.3,0.9,1.3s0.9-0.6,0.9-1.6v-1.3c0-0.8-0.2-1.3-0.9-1.3S123.4,70.1,123.4,70.9z"/>
<path class="st1" d="M128.3,76.6v-1.1c-0.1-0.8,0.3-1.6,1.1-2c-0.7-0.4-1-1.2-0.9-2V71c0-1.7,0.8-2.5,2.3-2.5c1.3,0,2.2,0.7,2.2,2.5
	v0.4c0,1.3-0.4,1.7-0.9,2c0.7,0.4,1.1,1.2,1,2v1c0,1.9-0.9,2.7-2.4,2.7C129.3,79.2,128.3,78.6,128.3,76.6z M131.6,76.7v-1.4
	c0-0.9-0.3-1.2-1-1.2s-0.9,0.4-0.9,1.2v1.3c0,0.8,0.3,1.3,0.9,1.3S131.6,77.5,131.6,76.7L131.6,76.7z M129.8,70.9v0.8
	c0,0.7,0.3,1.1,0.9,1.1s0.9-0.4,0.9-1.2v-0.8c0-0.7-0.2-1.2-0.9-1.2S129.8,70.2,129.8,70.9z"/>
<path class="st1" d="M138.3,71v-0.1c0-0.5-0.1-1.2-0.8-1.2s-0.9,0.5-0.9,1.7v1.5c0.3-0.5,0.9-0.8,1.4-0.8c1.3,0,1.8,1,1.8,2.4v1.8
	c0,1.6-0.5,2.8-2.4,2.8s-2.3-1.4-2.3-2.9v-4.7c0-1.8,0.5-3.1,2.3-3.1s2.2,1.4,2.2,2.4V71H138.3z M138.3,76.6v-1.8
	c0-0.8-0.2-1.3-0.9-1.3s-1,0.6-1,1.5v1.6c0,0.8,0.2,1.4,0.9,1.4S138.4,77.5,138.3,76.6L138.3,76.6z"/>
<path class="st1" d="M82.5,166.4l-0.4,2.6h-1.3l1.5-9.2h1.8l1.6,9.2h-1.3l-0.4-2.6H82.5z M83.9,165.3c-0.3-1.7-0.5-3.3-0.6-4.2l0,0
	c0,0.7-0.3,2.7-0.6,4.2H83.9z"/>
<path class="st1" d="M87.9,169.1v-9.2h1.5l1.4,5.1c0.1,0.5,0.3,1.1,0.4,1.6l0,0c-0.1-1.2-0.1-2.5-0.1-4v-2.8h1.2v9.2h-1.4l-1.5-5.8
	c-0.1-0.5-0.2-0.9-0.3-1.1l0,0c0.1,1.1,0.1,2.4,0.1,4.1v2.8L87.9,169.1z"/>
<path class="st1" d="M99,169.1h-1c0-0.1,0-0.5-0.1-0.7c-0.2,0.6-0.8,0.9-1.4,0.9c-1.3,0-1.8-1-1.8-2.5v-4.4c0-1.5,0.6-2.5,2.1-2.5
	c1.8,0,2.1,1.3,2.1,2.4v0.3h-1.3v-0.3c0-0.6-0.1-1.2-0.8-1.2c-0.6,0-0.8,0.4-0.8,1.2v4.7c0,0.8,0.2,1.3,0.8,1.3s0.9-0.6,0.9-1.7
	v-1.4h-0.9V164H99V169.1z"/>
<path class="st1" d="M101.6,159.9h1.3v8.1h2.3l-0.1,1.1h-3.5V159.9z"/>
<path class="st1" d="M110.5,164.8h-2.1v3.2h2.4l-0.2,1.1h-3.5V160h3.4v1.1h-2.2v2.6h2.1V164.8z"/>
<path class="st1" d="M112.9,159.9h1.8c1.4,0,2.2,0.6,2.2,2.2v0.4c0,1.4-0.5,1.8-0.9,1.9c0.6,0.3,0.9,0.6,0.9,1.9
	c0,0.9,0,1.9,0.1,2.8h-1.2c-0.1-0.9-0.1-1.8-0.1-2.8c0-1.1-0.2-1.4-1-1.4h-0.4v4.2H113L112.9,159.9z M114.2,163.9h0.4
	c0.8,0,1.1-0.4,1.1-1.4v-0.4c0-0.8-0.2-1.2-1.1-1.2h-0.5V163.9z"/>
<path class="st1" d="M120.4,166.4v0.6c0,0.8,0.3,1.2,0.8,1.2s0.8-0.5,0.8-1.3c0-1-0.2-1.4-1.2-2.1s-1.5-1.3-1.5-2.6s0.4-2.4,2-2.4
	s1.9,1.1,1.9,2.1v0.4h-1.3V162c0-0.7-0.1-1.1-0.7-1.1s-0.7,0.5-0.7,1.1s0.2,1.1,1,1.7c1.3,1,1.8,1.6,1.8,3.1c0,1.3-0.4,2.5-2.1,2.5
	s-2.1-1-2.1-2.2v-0.5L120.4,166.4z"/>
<path class="st1" d="M125.6,169.1v-2h1.3v2H125.6z"/>
<path class="st1" d="M133.4,162.3v4.4c0,1.7-0.7,2.5-2.2,2.5s-2.1-0.9-2.1-2.5v-4.4c0-1.7,0.8-2.5,2.2-2.5S133.4,160.7,133.4,162.3z
	 M130.4,162.2v4.7c0,0.9,0.3,1.3,0.9,1.3s0.9-0.4,0.9-1.3v-4.6c0-0.8-0.3-1.3-0.9-1.3S130.4,161.3,130.4,162.2L130.4,162.2z"/>
<path class="st1" d="M135.9,159.9h1.9c1.4,0,2.2,0.6,2.2,2.2v0.4c0,1.4-0.5,1.8-0.9,1.9c0.6,0.3,0.9,0.6,0.9,1.9
	c0,0.9,0,1.9,0.1,2.8h-1.2c-0.1-0.9-0.1-1.8-0.1-2.8c0-1.1-0.2-1.4-1-1.4h-0.4v4.2H136L135.9,159.9z M137.2,163.9h0.4
	c0.8,0,1.1-0.4,1.1-1.4v-0.4c0-0.8-0.2-1.2-1.1-1.2h-0.5L137.2,163.9z"/>
<path class="st1" d="M146.5,169.1h-1c0-0.1-0.1-0.5-0.1-0.7c-0.2,0.6-0.8,0.9-1.4,0.9c-1.3,0-1.8-1-1.8-2.5v-4.4
	c0-1.5,0.6-2.5,2.1-2.5c1.8,0,2.1,1.3,2.1,2.4v0.3h-1.3v-0.3c0-0.6-0.1-1.2-0.8-1.2c-0.6,0-0.8,0.4-0.8,1.2v4.7
	c0,0.8,0.2,1.3,0.8,1.3s0.9-0.6,0.9-1.7v-1.4h-0.9V164h2.2L146.5,169.1z"/>
<path class="st2" d="M231.1,97.5c-0.1-0.3-0.1-0.7-0.2-1c-0.1-0.6-0.1-1.1-0.2-1.5c-1.2-7-3.1-13.9-5.6-20.6c-0.1-0.3-0.2-0.6-0.3-1
	c-1.5-4-3.3-8-5.3-11.8l0,0c-28.6-54.5-98.6-79-157-48l-1.2,0.6c-5.7,3-11,6.5-16,10.6l-0.5,0.5c-12.3,9.9-22.3,22-30.6,35.9
	c-1.5,2.6-2.8,5.2-4,7.9c-0.1,0.1-0.1,0.2-0.2,0.3c-3.2,6.8-5.7,13.9-7.3,21.2c-1.8,8-2.7,16.2-2.7,24.3c-0.3,4,0.7,8.7,1.1,13.6
	c0.6,7.5,2.1,14.9,4.3,22.1c0.2,0.6,1.4,4.6,3.2,9c4.7,14.8,14.7,27.9,25.9,38.7l0.5,0.5l0.5,0.5c0.6,0.6,1.2,1.1,1.8,1.6
	s1.3,1.2,2,1.8l0,0c3.2,2.8,6.6,5.5,10.1,7.9l0.3,0.2c0.8,0.6,1.6,1.1,2.4,1.7s1.9,1.2,2.8,1.8l0.8,0.4c1,0.6,1.9,1.2,2.9,1.7
	l0.5,0.3c2.4,1.4,4.8,2.6,7.3,3.8l0,0c1,0.5,2,0.9,3,1.4c14.9,6.6,31,10.1,47.3,10.2c3.9,0.6,8.7-0.7,13.6-1.1
	c27.1-2.3,53.7-16.7,72.7-37.5l0,0l0,0c9-9.7,16.2-21.1,21.1-33.4l0.2-0.5c0.2-0.6,0.5-1.3,0.7-1.9s0.5-1.4,0.7-2.1l0.2-0.6
	c0,0,0-0.1,0-0.1c0.1-0.2,0.1-0.4,0.2-0.6C232.1,136,233.8,116.6,231.1,97.5z M42.4,196.3l-0.1-0.1c-0.7-0.7-1.4-1.3-2.1-2
	c-7.9-7.8-14.7-16.7-20-26.4c-0.2-0.4-0.5-0.9-0.7-1.4l-0.3-0.5c-0.4-0.8-0.8-1.5-1.2-2.3l-0.1-0.2c-0.4-0.8-0.8-1.7-1.2-2.5
	c-0.1-0.2-0.2-0.4-0.3-0.6c-0.3-0.6-0.5-1.2-0.8-1.8c-1-2.4-2-4.9-2.9-7.4c-6.3-18.5-6.7-39.6-2.9-58.7c0.1-0.4,0.2-0.9,0.3-1.3
	c0.3-1.1,0.6-2.9,1-4.6s0.9-3.5,1.3-5.2l0.1-0.3c0.1-0.5,0.3-0.9,0.4-1.4c4.3-14.2,12-27.2,22.4-37.8c1.4-1.5,2.7-2.8,3.9-3.9
	c4.9-4.7,10.1-9.1,15.7-13.1l3.3-2.1c43-28,106.9-19.6,139.5,20.1c5.6,6.2,10.3,13.1,14,20.5l0.1,0.2c0.4,0.8,0.8,1.6,1.2,2.4
	c1.5,3.1,2.7,6,3.7,8.5l0.8,1.9l0.2,0.5c2,5.4,3.7,10.9,5,16.6c0.1,0.6,0.3,1.2,0.4,1.8c3.9,18.5,3,37.7-2.8,55.7
	c-0.3,1-0.6,2-1,3.1c-0.3,0.8-0.6,1.6-0.8,2.4s-0.5,1.3-0.7,1.9s-0.5,1.1-0.7,1.6c-0.1,0.2-0.2,0.4-0.2,0.5
	c-1.9,4.3-4.1,8.5-6.5,12.5l-0.3,0.5c-0.2,0.3-0.3,0.5-0.5,0.8C173.9,231.1,93.4,243.4,42.4,196.3z"/>
</svg>
